<?xml version="1.0" encoding="UTF-8"?>
<svg id="Camada_1" data-name="Camada 1" xmlns="http://www.w3.org/2000/svg" xmlns:xlink="http://www.w3.org/1999/xlink" viewBox="0 0 477.57 240.19">
  <defs>
    <style>
      .cls-1 {
        fill: #281c1e;
      }

      .cls-2, .cls-3 {
        fill: none;
      }

      .cls-3 {
        clip-path: url(#clippath);
      }
    </style>
    <clipPath id="clippath">
      <rect class="cls-2" x="19.28" y="27.17" width="434.92" height="195.33"/>
    </clipPath>
  </defs>
  <g class="cls-3">
    <path class="cls-1" d="m71.58,54.73c.01-1.56.03-2.9.05-4.03l.05-3.09c.01-.93.02-2,.02-3.2,0-2.31-.39-4.06-1.21-5.35-.87-1.39-2.51-2.09-4.87-2.09-.88,0-1.72.1-2.49.31-.8.21-1.52.55-2.13,1-.64.47-1.15,1.1-1.5,1.86-.35.75-.52,1.64-.52,2.67,0,1.59.04,2.98.12,4.13.08,1.15.17,2.36.28,3.62.11,1.25.2,2.67.28,4.26.08,1.59.12,3.65.12,6.14v21.83c0,3.72-.31,6.89-.92,9.41-.6,2.48-1.48,4.5-2.6,6.01-1.1,1.48-2.47,2.56-4.07,3.21-1.64.67-3.57,1-5.72,1-2,0-3.94-.24-5.77-.71-1.8-.46-3.4-1.17-4.74-2.1-1.33-.92-2.41-2.08-3.21-3.45-.79-1.35-1.19-2.97-1.19-4.83,0-.72.08-1.43.24-2.11.17-.73.35-1.46.54-2.17.19-.73.37-1.45.55-2.16.19-.77.28-1.57.28-2.38,0-2.13-.61-3.71-1.82-4.69-1.16-.95-2.59-1.43-4.25-1.43-1.27,0-2.37.27-3.26.79-.87.51-1.6,1.2-2.18,2.05-.56.82-1.01,1.76-1.33,2.81-.31,1.01-.55,2.04-.71,3.08-.16,1.04-.26,2.08-.29,3.09-.03,1-.05,1.9-.05,2.69,0,3.04.44,5.76,1.3,8.1.86,2.34,2.02,4.4,3.46,6.13,1.43,1.72,3.11,3.18,4.98,4.34,1.85,1.14,3.81,2.07,5.82,2.76,2,.69,4.05,1.18,6.09,1.47,2.03.29,3.94.43,5.7.43,4.88,0,9.01-.85,12.27-2.54,3.26-1.69,5.89-3.95,7.83-6.73,1.92-2.76,3.29-5.92,4.08-9.4.78-3.44,1.17-7,1.17-10.61l-.42-24.13c0-2.45,0-4.45.02-6"/>
    <path class="cls-1" d="m117.87,64.88c2.8,0,5.32.5,7.5,1.49,2.18.99,4.04,2.33,5.54,4,1.49,1.67,2.66,3.67,3.45,5.93.8,2.28,1.2,4.72,1.2,7.26,0,3.09-.48,5.85-1.43,8.19-.94,2.34-2.23,4.32-3.83,5.89-1.6,1.57-3.48,2.77-5.6,3.57-2.13.81-4.43,1.22-6.84,1.22-2.71,0-5.18-.45-7.34-1.33-2.14-.88-3.99-2.14-5.5-3.77-1.51-1.63-2.68-3.62-3.49-5.92-.82-2.33-1.23-4.97-1.23-7.85,0-2.54.4-4.99,1.18-7.26.78-2.26,1.93-4.26,3.42-5.93,1.49-1.67,3.34-3.02,5.49-4,2.15-.98,4.65-1.48,7.45-1.48m21.91-2.82c-2.62-2.75-5.82-4.96-9.5-6.55-3.68-1.59-7.84-2.4-12.36-2.4-4.15,0-8.09.81-11.73,2.4-3.63,1.59-6.84,3.79-9.56,6.53-2.71,2.75-4.88,6-6.44,9.68-1.56,3.68-2.35,7.66-2.35,11.84,0,4.58.81,8.8,2.4,12.55,1.59,3.75,3.78,6.99,6.52,9.64,2.73,2.65,5.96,4.74,9.59,6.2,3.63,1.46,7.52,2.2,11.57,2.2,2.69,0,5.34-.33,7.86-.99,2.52-.66,4.93-1.62,7.14-2.86,2.22-1.24,4.28-2.77,6.13-4.55,1.85-1.79,3.46-3.83,4.78-6.09,1.32-2.25,2.35-4.76,3.08-7.46.72-2.69,1.09-5.6,1.09-8.65,0-4.16-.72-8.14-2.13-11.81-1.41-3.68-3.46-6.94-6.08-9.69"/>
    <path class="cls-1" d="m204.95,73.74c-.16-2-.29-4-.4-5.97-.11-1.93-.07-3.86.12-5.8,0-.54.03-1.08.09-1.61.07-.59.1-1.18.1-1.74,0-1.58-.61-2.92-1.8-3.97-1.17-1.02-2.73-1.54-4.65-1.54-1.36,0-2.48.31-3.36.92-.74.52-1.34,1.14-1.79,1.85-1.87.61-4.44,1.38-7.64,2.3-3.08.89-6.8,1.88-11.09,2.95.02-.15.05-.3.07-.46.08-.58.13-1.17.13-1.74,0-.72-.13-1.43-.38-2.11-.26-.69-.64-1.32-1.15-1.87-.51-.55-1.15-1-1.9-1.34-.76-.34-1.65-.52-2.64-.52-2.21,0-4,.5-5.33,1.48-1.4,1.03-2.11,2.53-2.11,4.46,0,1.03.1,2.03.3,2.97.18.84.27,1.68.27,2.5v36.34c-.03,1.32-.06,2.53-.09,3.63-.03,1.11-.05,2.22-.05,3.32,0,1.02.17,1.93.51,2.72.34.79.81,1.46,1.39,2.01.58.55,1.27.96,2.05,1.23.76.27,1.55.4,2.36.4.69,0,1.56-.07,2.57-.19,1.01-.13,2.34-.35,3.93-.67l2.64-.5c.74-.14,1.33-.24,1.68-.29.79-.04,1.53-.26,2.19-.66.63-.38,1.19-.87,1.65-1.46.46-.58.83-1.25,1.09-1.99.27-.74.4-1.53.4-2.34,0-.9-.17-1.71-.5-2.43-.33-.71-.76-1.31-1.3-1.79-.53-.47-1.14-.84-1.8-1.09-.64-.24-1.31-.4-1.96-.47h-.08s-.08,0-.08,0c-.77.07-1.48.2-2.1.38-.57.18-1.18.38-1.79.59l-.39.12v-29.09c1.2-.27,2.39-.53,3.57-.78,1.39-.3,2.8-.62,4.2-.97,2.49-.53,4.77-1.04,6.87-1.51,1.57-.35,2.88-.65,3.94-.9-.02,1.4-.05,2.7-.07,3.91-.03,1.5-.05,2.98-.05,4.43,0,.7.1,1.41.29,2.12.2.74.53,1.42.98,2.02.46.61,1.07,1.12,1.8,1.5,1.23.64,3.06.72,4.89.38.76-.14,1.48-.38,2.13-.71.69-.35,1.26-.84,1.71-1.43.48-.64.73-1.43.73-2.36,0-.73,0-1.45-.02-2.16-.02-.73-.06-1.41-.12-2.05"/>
    <path class="cls-1" d="m278.93,98.71c-.46.07-1.03.18-1.72.34-.18.04-.37.09-.55.14.34-.9.66-1.83.95-2.79.46-1.52.86-3.06,1.19-4.57.33-1.52.6-3.07.79-4.6.19-1.54.29-3.03.29-4.44,0-4.61-.53-8.79-1.56-12.43-1.05-3.67-2.64-6.82-4.72-9.36-2.1-2.55-4.74-4.53-7.84-5.88-3.09-1.34-6.73-2.02-10.81-2.02-2.1,0-4.11.23-5.99.68-1.87.45-3.64,1.06-5.27,1.82-1.62.76-3.15,1.63-4.53,2.59-.8.56-1.55,1.13-2.25,1.72,0-.32.01-.62.01-.88,0-1.75-.51-3.14-1.5-4.14-1-1-2.27-1.51-3.77-1.51-.55,0-1.16.02-1.85.05-.69.03-1.38.08-2.09.14-.61.06-1.24.11-1.89.14-1.13.05-2.26.14-3.2-.12-.54-.14-1.1-.22-1.67-.22-1.47,0-2.73.52-3.74,1.53-1.02,1.01-1.53,2.5-1.53,4.4,0,1.06.18,1.97.52,2.72.35.75.82,1.37,1.4,1.84.56.45,1.18.79,1.86,1.01,1.45.47,2.95.34,3.99.25.21-.02.41-.04.6-.06l.34,16.94c.02.86.03,1.51.05,1.95.01.43.02.71.02.84v.33c.06,2.32.1,4.57.12,6.75.01,2.18.02,4.5.02,6.95,0,1.22-.05,2.34-.14,3.32-.09,1-.19,1.92-.28,2.77-.06.57-.12,1.16-.17,1.77-.05.62-.07,1.22-.07,1.81,0,1.72.4,3.09,1.19,4.08.83,1.04,2.31,1.57,4.41,1.57.61,0,1.3-.11,2.1-.34l2.63-.74c.23-.08.52-.13.87-.18.42-.05.85-.1,1.27-.16.83-.1,1.69-.23,2.57-.38.94-.17,1.82-.48,2.62-.91.83-.45,1.53-1.1,2.07-1.91.56-.84.84-1.95.84-3.29,0-1.82-.53-3.25-1.57-4.23-1.03-.97-2.51-1.47-4.41-1.47-.31,0-.66.04-1.06.14-.34.08-.69.17-1.05.27l-.32.09c-.02-.44-.03-.87-.03-1.29v-2.19c0-2.48.02-4.93.05-7.35.03-2.42.08-4.85.14-7.32,0-1.44,0-2.88.02-4.31.01-1.33.03-2.66.06-3.98,1-1.18,2.16-2.34,3.46-3.47,1.37-1.19,2.86-2.26,4.43-3.19,1.56-.92,3.22-1.68,4.94-2.24,1.69-.55,3.44-.83,5.2-.83,2.5,0,4.6.54,6.24,1.59,1.67,1.08,3.03,2.48,4.04,4.18,1.03,1.72,1.78,3.67,2.21,5.79.44,2.16.67,4.3.67,6.37,0,1.81-.09,3.63-.26,5.39-.17,1.75-.44,3.45-.81,5.04-.37,1.58-.85,3.07-1.44,4.44-.58,1.35-1.3,2.57-2.12,3.62-.8.93-1.36,1.99-1.67,3.13-.3,1.1-.45,2.2-.45,3.27,0,.7.11,1.42.31,2.15.21.74.53,1.43.96,2.05.44.63.99,1.17,1.64,1.59.69.44,1.5.67,2.35.67h0c.16,0,.32.01.48.01.41,0,.8-.03,1.17-.1.48-.09,1.06-.24,1.73-.45.65-.21,1.45-.48,2.42-.81.95-.33,2.21-.72,3.72-1.18l5.18-1.21c.87-.31,1.6-.72,2.18-1.2.57-.48,1.03-1.01,1.35-1.57.33-.57.55-1.16.66-1.77.1-.56.15-1.09.15-1.58,0-2-.53-3.5-1.59-4.46-1.05-.95-2.59-1.34-4.6-1.14"/>
    <path class="cls-1" d="m339.51,81.75v4c-.37,1.97-1.05,3.96-2.04,5.92-1,1.98-2.29,3.79-3.84,5.39-1.55,1.59-3.38,2.9-5.46,3.89-2.05.98-4.38,1.48-6.92,1.48s-4.89-.51-6.91-1.52c-2.02-1.01-3.75-2.39-5.14-4.1-1.4-1.72-2.48-3.74-3.21-6-.74-2.27-1.12-4.66-1.12-7.11,0-2.73.42-5.3,1.25-7.66.83-2.35,2-4.43,3.49-6.19,1.48-1.75,3.26-3.14,5.29-4.14,2.02-.99,4.28-1.5,6.72-1.5,2.59,0,4.94.56,6.98,1.67,2.07,1.13,3.88,2.57,5.36,4.3,1.5,1.74,2.73,3.67,3.65,5.73.91,2.04,1.55,4,1.89,5.83m21.06,19.18c-.45-.6-1.02-1.1-1.67-1.48-.69-.4-1.49-.6-2.38-.6-.75,0-1.39.1-1.92.28l-1.42.52c-.44.24-.93.46-1.45.67-.1.04-.2.08-.3.12-.07-.74-.1-1.7-.1-2.87v-7.26c0-1.35.02-2.83.05-4.44.03-1.61.08-3.17.14-4.69.06-2.23.12-4.68.17-7.34.05-2.66.07-5.72.07-9.14.06-1.09.15-2.17.26-3.24.11-1.11.17-2.22.17-3.31,0-.56-.17-1.19-.51-1.85-.32-.62-.77-1.21-1.33-1.76-.56-.55-1.25-1.01-2.03-1.38-.81-.38-1.72-.57-2.72-.57-1.14,0-2.13.17-2.94.51-.83.34-1.52.81-2.07,1.39-.55.59-.96,1.28-1.21,2.07-.25.75-.37,1.57-.37,2.44v.74c-.6-.56-1.26-1.11-1.96-1.65-1.31-1-2.8-1.91-4.43-2.7-1.63-.79-3.41-1.43-5.29-1.92-1.9-.49-3.91-.73-5.97-.73-4.06,0-7.89.8-11.38,2.38-3.49,1.58-6.58,3.78-9.17,6.55-2.59,2.77-4.65,6.07-6.12,9.82-1.48,3.75-2.22,7.86-2.22,12.22s.7,8.38,2.08,12.07c1.38,3.7,3.35,6.95,5.84,9.67,2.5,2.72,5.53,4.88,9.01,6.41,3.48,1.53,7.36,2.31,11.54,2.31,2.07,0,4.11-.25,6.06-.73,1.95-.48,3.8-1.15,5.51-1.99,1.7-.84,3.29-1.82,4.71-2.91.88-.68,1.69-1.4,2.42-2.16.05.37.11.74.18,1.11.21,1.05.55,2.03,1.03,2.9.5.91,1.21,1.67,2.11,2.24.91.58,2.07.88,3.45.88,1.09,0,2.17-.12,3.21-.35,1.01-.22,2.03-.5,3.04-.82,1.01-.32,2.01-.68,2.99-1.06.97-.37,1.93-.74,2.85-1.07,1.31-.45,2.22-1.21,2.72-2.27.46-.97.69-1.95.69-2.91,0-.67-.11-1.37-.31-2.08-.21-.73-.55-1.41-1-2"/>
    <path class="cls-1" d="m390.42,100.26c-.63,0-1.37.1-2.19.3-.56.14-1.27.33-2.11.56v-60.73c.03-.6.1-1.19.2-1.76.11-.6.23-1.19.37-1.77.15-.61.27-1.22.39-1.83.12-.64.18-1.31.18-1.98,0-1.94-.5-3.42-1.48-4.4-.98-.98-2.26-1.48-3.79-1.48-1,0-1.85.02-2.55.07-.69.05-1.35.09-1.97.14-.6.05-1.23.09-1.89.12-.65.03-1.41.05-2.27.05-1.16,0-2.27-.06-3.3-.18-1.1-.13-2.22-.19-3.35-.19-1.4,0-2.64.51-3.69,1.52-1.05,1.02-1.59,2.48-1.59,4.37,0,1.06.18,1.98.55,2.75.36.76.83,1.39,1.39,1.85.55.46,1.17.8,1.84,1.02.66.21,1.32.32,1.97.32,1.34,0,2.66-.06,3.93-.17.96-.08,1.93-.15,2.88-.18.06,3.48.11,7.03.15,10.65l.28,22.3c.05,3.46.08,6.6.09,9.42.02,2.83.03,5.28.05,7.33.02,2.06.02,3.56.02,4.5,0,1.41-.02,2.83-.05,4.25-.03,1.42-.08,2.69-.14,3.83-.09,2.17-.14,4.26-.14,6.21,0,.8.12,1.6.36,2.4.25.81.63,1.56,1.14,2.25.52.7,1.2,1.28,2.01,1.71.82.44,1.81.66,2.94.66.73,0,1.43-.05,2.06-.15.63-.1,1.49-.32,2.58-.68l4.71-1.22c1.92-.47,3.37-1.12,4.43-1.97,1.15-.93,1.73-2.24,1.73-3.9,0-3.91-1.99-5.98-5.74-5.98"/>
    <path class="cls-1" d="m45.14,172.19c0,.3.01.66.01,1.09v1.56c-.22,1.1-.66,2.1-1.29,2.97-.64.88-1.41,1.65-2.28,2.26-.87.62-1.84,1.1-2.87,1.44-2.36.77-4.85.65-6.71-.3-1.06-.54-1.97-1.28-2.71-2.18-.74-.91-1.32-1.96-1.71-3.12-.39-1.17-.59-2.4-.59-3.64,0-1.47.23-2.82.68-4.02.45-1.2,1.09-2.23,1.89-3.08.8-.85,1.76-1.51,2.86-1.98,1.1-.47,2.31-.7,3.61-.7,1.1,0,2.16.21,3.14.62.99.41,1.9.99,2.7,1.71.8.72,1.49,1.58,2.04,2.56.56.98.97,2.06,1.21,3.09v.88c0,.26,0,.54.01.85m10.49,7.9c-.29-.24-.62-.42-.98-.53-.36-.11-.71-.14-1.04-.1-.43.04-.84.14-1.2.31-.27.13-.55.27-.85.43-.04-.62-.06-1.39-.08-2.28-.02-1.29-.04-2.74-.04-4.34v-2.69c0-1.23,0-2.65.01-4.25l.02-5.17c0-1.84.02-3.65.04-5.42l.05-5.02c.01-1.52.04-2.81.07-3.86.15-.36.23-.83.23-1.41,0-.89-.24-1.63-.7-2.19-.49-.58-1.15-.88-1.99-.88-1.27.02-2.46.05-3.56.09-1.08.04-2.15.05-3.2.04-.3-.08-.58-.13-.84-.14-.24,0-.44-.01-.61-.01-.8,0-1.48.28-2.01.83-.53.55-.8,1.32-.8,2.29,0,.54.09,1.03.27,1.45.18.42.4.78.68,1.07.28.3.6.53.96.7.82.37,1.64.28,2.35.12.33-.07.67-.11,1.01-.11h1.64l.04,3.79c.02,1.33.03,2.54.04,3.62,0,1.08.01,2.02.01,2.81v.6c-.36-.36-.75-.7-1.16-1.02-.75-.56-1.57-1.04-2.45-1.42-.87-.38-1.81-.67-2.77-.87-.96-.2-1.95-.29-2.93-.29-2.18,0-4.22.41-6.08,1.22-1.86.81-3.49,1.94-4.85,3.37-1.36,1.43-2.44,3.13-3.2,5.08-.77,1.94-1.15,4.09-1.15,6.37s.35,4.31,1.04,6.23c.69,1.93,1.68,3.63,2.95,5.07,1.27,1.44,2.82,2.59,4.6,3.42,1.79.83,3.81,1.25,6.01,1.25,1.07,0,2.16-.11,3.24-.33,1.07-.22,2.1-.53,3.08-.94.98-.41,1.91-.89,2.76-1.44.62-.4,1.2-.84,1.73-1.32.25.94.57,1.73.98,2.35.57.88,1.35,1.33,2.3,1.33.47,0,.99-.15,1.58-.44.52-.27,1.06-.55,1.62-.84l1.11-.58c.35-.18.73-.37,1.1-.54.46-.19.9-.53,1.32-1,.44-.5.67-1.17.67-1.97,0-.56-.1-1.05-.29-1.45-.19-.4-.44-.73-.74-.98"/>
    <path class="cls-1" d="m75.02,162.47c1.46,0,2.77.26,3.91.77,1.14.52,2.11,1.22,2.88,2.08.78.87,1.38,1.91,1.8,3.09.42,1.19.63,2.46.63,3.78,0,1.61-.25,3.05-.74,4.27-.49,1.22-1.16,2.25-1.99,3.06-.83.82-1.81,1.44-2.91,1.86-1.11.42-2.31.64-3.56.64-1.41,0-2.7-.23-3.82-.69-1.12-.46-2.08-1.12-2.86-1.96-.78-.84-1.39-1.88-1.81-3.08-.43-1.21-.64-2.59-.64-4.09,0-1.32.21-2.59.62-3.78.41-1.18,1.01-2.22,1.78-3.09.78-.87,1.74-1.57,2.86-2.08,1.12-.51,2.42-.77,3.88-.77m11.5-1.55c-1.38-1.44-3.06-2.6-4.99-3.43-1.93-.84-4.12-1.26-6.49-1.26-2.18,0-4.25.42-6.16,1.26-1.9.83-3.59,1.98-5.02,3.43-1.42,1.44-2.56,3.15-3.38,5.08-.82,1.93-1.23,4.02-1.23,6.21,0,2.4.42,4.62,1.26,6.58.84,1.96,1.99,3.66,3.42,5.06,1.43,1.39,3.13,2.49,5.03,3.25,1.91.77,3.95,1.16,6.07,1.16,1.41,0,2.8-.17,4.13-.52,1.32-.34,2.58-.85,3.75-1.5,1.16-.65,2.24-1.45,3.22-2.39s1.82-2.01,2.51-3.19c.69-1.18,1.24-2.5,1.61-3.91.38-1.41.57-2.94.57-4.53,0-2.18-.38-4.26-1.12-6.19-.74-1.93-1.82-3.64-3.19-5.08"/>
    <path class="cls-1" d="m120.35,174.79c-.72-1.11-1.67-2.04-2.81-2.77-1.12-.72-2.39-1.31-3.78-1.76-1.35-.44-2.72-.85-4.06-1.22-.96-.26-1.89-.53-2.78-.81-.87-.27-1.63-.58-2.28-.92-.62-.32-1.12-.7-1.48-1.13-.33-.38-.49-.84-.49-1.39,0-.41.12-.78.36-1.11.26-.36.62-.67,1.08-.93.47-.27,1.05-.48,1.72-.63,1.38-.3,3.14-.3,4.48,0,.68.15,1.29.34,1.81.56.52.22.97.46,1.35.71.34.23.64.44.87.63.11.26.25.51.43.75.21.28.45.53.73.75.28.22.6.39.94.52.73.27,1.57.24,2.23.06.36-.1.68-.25.96-.46.29-.22.52-.5.68-.83.16-.33.24-.74.24-1.2,0-.2-.02-.43-.05-.69-.03-.24-.09-.47-.17-.68,0-.75.03-1.46.07-2.1.05-.68.08-1.35.08-1.98,0-.94-.29-1.63-.86-2.03-.52-.37-1.24-.55-2.14-.55-.4,0-.77.08-1.09.25-.31.16-.58.36-.82.6-.22.23-.42.5-.58.79-.07.12-.13.25-.18.37-.35-.14-.69-.27-1.04-.4-.51-.2-1.05-.36-1.61-.5-.55-.13-1.16-.24-1.8-.33-1.76-.23-4.06-.15-6.25.31-1.4.3-2.7.78-3.85,1.45-1.17.67-2.13,1.56-2.86,2.64-.75,1.1-1.13,2.45-1.13,4.02,0,1.15.17,2.19.51,3.08.34.89.8,1.69,1.37,2.37.57.67,1.25,1.26,2.02,1.76.75.48,1.57.9,2.43,1.25.85.34,1.74.64,2.63.9.89.26,1.78.49,2.65.71.95.25,1.88.5,2.78.76.87.25,1.66.56,2.34.92.66.35,1.19.77,1.59,1.24.37.45.55.98.55,1.63,0,.46-.13.85-.41,1.19-.29.37-.7.7-1.21.96-.52.27-1.15.48-1.85.62-.72.14-1.49.21-2.29.21-1.97,0-3.58-.26-4.78-.76-1.18-.5-2.08-1.21-2.69-2.13-.17-.23-.32-.45-.48-.65-.18-.23-.38-.44-.61-.61-.24-.18-.52-.32-.83-.42-.57-.18-1.4-.24-2.22.07-.37.14-.72.34-1.03.59-.31.26-.58.57-.79.93-.22.38-.33.81-.33,1.27,0,.57.18,1.17.53,1.78.33.58.8,1.15,1.39,1.71.58.55,1.28,1.07,2.09,1.56.8.49,1.7.92,2.67,1.29.97.37,2.01.67,3.1.88,1.1.22,2.25.33,3.42.33.83,0,1.73-.05,2.66-.14.94-.09,1.88-.26,2.8-.51.92-.25,1.83-.59,2.68-1.02.87-.44,1.65-1.01,2.31-1.69.66-.69,1.2-1.52,1.6-2.47.4-.96.6-2.09.6-3.38,0-1.68-.37-3.1-1.11-4.23"/>
    <path class="cls-1" d="m176.38,128.83c-.61-.46-1.31-.78-2.07-.96-.71-.17-1.41-.25-2.07-.25h-36.53c-2.44,0-4.18.38-5.33,1.16-1.22.84-1.85,2.3-1.85,4.37,0,.74.1,1.48.3,2.22.21.75.52,1.44.93,2.04.43.62.97,1.13,1.61,1.53.67.41,1.45.62,2.32.62,2.72,0,5.23-.02,7.52-.05,2.01-.03,3.96-.04,5.86-.05l-.09,53.52c0,.83.02,1.69.05,2.59.03.98.23,1.89.59,2.71.38.87,1.01,1.59,1.87,2.15.87.56,2.05.83,3.62.83,1.3,0,2.38-.2,3.22-.6.84-.4,1.51-.94,1.98-1.59.46-.64.77-1.36.91-2.14.13-.72.2-1.44.2-2.15,0-.86-.06-1.67-.17-2.41-.1-.66-.15-1.34-.15-2.03l.14-50.87h11.04c.46,0,.9.04,1.31.12,1.25.25,2.6.22,3.74-.4.65-.35,1.21-.81,1.69-1.37.47-.55.84-1.22,1.12-1.97.27-.75.41-1.55.41-2.37,0-1.13-.21-2.09-.62-2.84-.4-.74-.92-1.34-1.54-1.8"/>
    <path class="cls-1" d="m213.71,191.16c-.19-.58-.48-1.08-.86-1.48-.39-.4-.89-.72-1.51-.95-.59-.22-1.32-.32-2.21-.32-.58,0-1.12.06-1.59.18-.44.11-.85.24-1.25.39-.35.13-.72.26-1.1.37-.11.03-.23.06-.35.09-.05-2.86-.07-5.67-.05-8.37l.04-8.79c.01-2.87.04-5.69.07-8.46.03-2.78.04-5.55.04-8.29,0-1.32.1-2.58.31-3.73.22-1.25.33-2.53.33-3.82,0-1.64-.4-2.96-1.18-3.92-.82-1.01-2.15-1.52-3.94-1.52-1.03,0-2.13.05-3.28.16-2.17.21-4.35.21-6.61,0-1.16-.11-2.35-.16-3.53-.16-1.39,0-2.61.5-3.62,1.47-1.02.99-1.54,2.41-1.54,4.24,0,1.03.18,1.92.54,2.65.35.71.8,1.31,1.33,1.78.54.47,1.15.81,1.82,1,1.1.33,2.09.3,3.47.26l1.8-.05c.63-.01,1.24-.04,1.83-.07.27-.01.52-.03.76-.04.11,5.69.18,11.17.21,16.28.03,5.38.05,10.81.05,16.27,0,1.43-.04,2.57-.11,3.41-.08.84-.15,1.58-.23,2.2-.08.62-.15,1.19-.23,1.7-.08.56-.12,1.22-.12,2.03,0,1.7.51,3.07,1.51,4.05,1,.98,2.52,1.48,4.52,1.48.44,0,1.03-.06,1.78-.19.71-.12,1.51-.29,2.38-.49.86-.2,1.77-.42,2.74-.67.96-.24,1.91-.49,2.85-.74,1.69-.52,3.06-1.26,4.05-2.19,1.11-1.03,1.54-2.42,1.28-4.16-.13-.57-.27-1.11-.43-1.6"/>
    <path class="cls-1" d="m267.7,171.65c0,2.62-.39,5.07-1.15,7.3-.76,2.21-1.88,4.15-3.32,5.76-1.44,1.6-3.26,2.87-5.4,3.77-2.15.9-4.69,1.36-7.53,1.36-2.5,0-4.78-.46-6.78-1.35-1.99-.9-3.71-2.16-5.11-3.76-1.41-1.61-2.51-3.55-3.29-5.77-.78-2.23-1.17-4.68-1.17-7.3s.41-5.16,1.22-7.46c.8-2.29,1.96-4.31,3.44-5.99,1.48-1.68,3.28-3.03,5.36-4,2.07-.97,4.43-1.46,7.02-1.46,2.92,0,5.47.51,7.57,1.51,2.1,1,3.84,2.36,5.18,4.04,1.35,1.7,2.36,3.71,3,6,.65,2.32.98,4.8.98,7.37m10.71-24.7c-.45-.56-1.07-1-1.85-1.31-.75-.29-1.7-.44-2.82-.44-.81,0-1.52.14-2.13.41-.58.26-1.1.61-1.54,1.04-.44.42-.81.92-1.09,1.46-.07.13-.13.26-.19.39-2.04-2-4.46-3.57-7.22-4.67-3.13-1.25-6.88-1.89-11.14-1.89-4.02,0-7.8.71-11.23,2.12-3.44,1.41-6.47,3.43-9,6.01-2.53,2.58-4.54,5.73-5.96,9.37-1.42,3.63-2.11,7.74-2.04,12.21.03,4.19.74,8.13,2.11,11.71,1.37,3.59,3.3,6.74,5.74,9.38,2.44,2.64,5.39,4.74,8.77,6.22,3.38,1.49,7.14,2.24,11.16,2.24,2.45,0,4.66-.18,6.57-.54,1.93-.36,3.65-.87,5.13-1.52,1.49-.65,2.81-1.43,3.93-2.32.57-.46,1.11-.94,1.61-1.43.02.34.02.67.02.97,0,2.42-.5,4.58-1.49,6.41-1,1.85-2.29,3.42-3.83,4.66-1.56,1.25-3.3,2.21-5.17,2.85-3.81,1.3-7.53,1.12-10.14.46-1.33-.34-2.53-.77-3.58-1.29-1.04-.52-1.99-1.12-2.81-1.79-.85-.69-1.67-1.39-2.45-2.1-.57-.46-1.28-.82-2.13-1.06-1.96-.56-3.24-.43-4.45.28-.68.4-1.26.92-1.73,1.55-.46.62-.83,1.32-1.08,2.1-.25.78-.38,1.57-.38,2.34,0,1.14.39,2.25,1.15,3.31.72,1,1.7,1.94,2.9,2.79,1.18.83,2.56,1.61,4.11,2.29,1.53.68,3.16,1.28,4.83,1.78,1.67.49,3.38.88,5.09,1.14,1.71.26,3.37.4,4.92.4,1.67,0,3.54-.13,5.54-.37,2.03-.25,4.1-.74,6.13-1.46,2.05-.72,4.07-1.74,5.99-3.02,1.95-1.3,3.69-3.02,5.19-5.11,1.49-2.09,2.71-4.64,3.61-7.59.9-2.94,1.36-6.49,1.36-10.55,0-3.45.01-6.88.05-10.29.03-3.41.08-6.65.14-9.7.06-3.09.1-6.2.11-9.33.01-3.13.02-6.42.02-9.87,0-.71.06-1.38.17-1.99.13-.7.2-1.42.2-2.13,0-.78-.08-1.52-.22-2.2-.16-.74-.47-1.39-.91-1.94"/>
    <path class="cls-1" d="m337.76,161.98c-.15-1.95-.28-3.88-.39-5.8-.1-1.87-.07-3.74.12-5.63,0-.53.03-1.05.09-1.57.06-.58.09-1.15.09-1.68,0-1.54-.59-2.83-1.75-3.85-1.13-.99-2.65-1.49-4.51-1.49-1.32,0-2.41.3-3.26.89-.72.5-1.3,1.11-1.74,1.79-1.81.59-4.3,1.34-7.41,2.24-3.01.87-6.63,1.83-10.76,2.87.02-.15.04-.29.07-.44.08-.57.12-1.14.12-1.69,0-.7-.12-1.39-.37-2.05-.25-.67-.62-1.28-1.12-1.81-.49-.53-1.12-.96-1.85-1.3-.74-.33-1.6-.5-2.56-.5-2.14,0-3.88.48-5.17,1.43-1.36,1-2.05,2.46-2.05,4.33,0,.99.1,1.96.29,2.88.17.82.26,1.63.26,2.43v35.28l-.09,3.52c-.03,1.08-.04,2.15-.04,3.23,0,.99.17,1.88.5,2.64.33.77.79,1.42,1.35,1.95.56.53,1.23.93,1.99,1.2.74.26,1.51.39,2.29.39.67,0,1.51-.06,2.5-.19.98-.13,2.27-.34,3.82-.65l2.57-.48c.72-.13,1.29-.23,1.63-.28.77-.04,1.48-.25,2.12-.64.61-.37,1.15-.84,1.6-1.42.45-.57.8-1.22,1.06-1.93.26-.72.39-1.49.39-2.27,0-.87-.16-1.66-.48-2.36-.32-.69-.74-1.27-1.26-1.74-.51-.46-1.1-.82-1.75-1.06-.63-.24-1.27-.39-1.91-.46h-.07s-.07,0-.07,0c-.75.06-1.44.19-2.04.37-.56.17-1.15.36-1.73.57l-.38.12v-28.24c1.17-.26,2.32-.51,3.47-.76,1.35-.29,2.72-.6,4.07-.94,2.41-.52,4.64-1.01,6.67-1.47,1.52-.34,2.8-.63,3.83-.87-.02,1.36-.05,2.62-.07,3.79-.03,1.46-.05,2.89-.05,4.3,0,.68.09,1.37.28,2.05.19.72.51,1.38.95,1.96.45.59,1.03,1.08,1.74,1.45,1.19.63,2.96.7,4.75.37.74-.13,1.43-.37,2.07-.69.67-.34,1.22-.81,1.66-1.39.47-.62.7-1.39.7-2.29,0-.71,0-1.41-.02-2.1-.01-.71-.05-1.38-.12-1.99"/>
    <path class="cls-1" d="m373.89,153.38c1.58,0,3.06.26,4.42.77,1.37.52,2.63,1.23,3.75,2.13,1.12.89,2.12,1.96,2.96,3.16.67.96,1.24,1.97,1.69,3.02-5.17,1.22-10.31,2.35-15.31,3.36-4.96,1-9.91,2.07-14.72,3.19.26-2.09.79-4.04,1.57-5.81.9-2.05,2.11-3.81,3.59-5.25,1.48-1.43,3.25-2.56,5.26-3.36,2.02-.8,4.3-1.2,6.79-1.2m1.8,21.77c3.12-.64,6.22-1.3,9.3-1.97,3.08-.67,6.2-1.41,9.26-2.2,1.53-.36,2.82-1.03,3.85-1.99,1.09-1.02,1.64-2.34,1.64-3.92,0-.91-.16-1.83-.48-2.75-.3-.87-.77-1.61-1.38-2.19-.57-2.6-1.55-5.03-2.91-7.21-1.4-2.25-3.15-4.21-5.21-5.83-2.06-1.62-4.44-2.89-7.07-3.79-2.63-.89-5.49-1.35-8.49-1.35-4.17,0-8.1.73-11.69,2.16-3.59,1.44-6.74,3.51-9.37,6.17-2.62,2.66-4.71,5.89-6.21,9.62-1.49,3.72-2.25,7.94-2.25,12.53,0,2.13.25,4.34.75,6.57.5,2.24,1.25,4.45,2.25,6.57,1,2.12,2.26,4.14,3.76,6.01,1.51,1.88,3.3,3.56,5.33,4.98,2.04,1.43,4.37,2.57,6.93,3.4,2.57.83,5.43,1.25,8.52,1.25,2.61,0,5.07-.24,7.32-.73,2.25-.48,4.37-1.14,6.3-1.97,1.93-.82,3.72-1.8,5.33-2.89,1.6-1.09,3.07-2.25,4.37-3.46,1.24-1.14,2.08-2.18,2.55-3.16.48-1,.72-1.83.72-2.53,0-1.72-.49-3.12-1.46-4.16-.99-1.06-2.37-1.6-4.11-1.6-.5,0-1.02.11-1.55.33-.5.2-1,.49-1.49.84-.48.35-.94.75-1.35,1.2-.41.44-.78.91-1.1,1.39-.29.42-.82.93-1.58,1.52-.77.6-1.8,1.19-3.07,1.76-1.27.57-2.83,1.06-4.63,1.46-1.8.4-3.89.6-6.2.6-1.45,0-2.96-.2-4.5-.59-1.51-.39-2.97-1.04-4.32-1.94-1.35-.89-2.59-2.08-3.67-3.55-.95-1.28-1.71-2.86-2.25-4.71,2.94-.67,5.85-1.31,8.75-1.93,3.16-.67,6.29-1.33,9.4-1.97"/>
    <path class="cls-1" d="m452.16,176.38c-1.34-2.05-3.09-3.78-5.2-5.13-2.07-1.33-4.43-2.42-7-3.26-2.53-.83-5.06-1.58-7.52-2.25-1.8-.49-3.54-.99-5.17-1.5-1.61-.5-3.03-1.07-4.24-1.71-1.16-.61-2.09-1.32-2.77-2.11-.63-.73-.93-1.59-.93-2.64,0-.79.22-1.48.68-2.11.48-.67,1.16-1.26,2.02-1.75.89-.51,1.97-.9,3.22-1.17,2.56-.56,5.86-.55,8.34,0,1.26.28,2.4.63,3.37,1.04.97.4,1.82.85,2.52,1.32.65.44,1.2.84,1.65,1.19.2.48.47.95.8,1.4.38.51.83.97,1.34,1.37.52.4,1.1.72,1.73.96,1.33.51,2.87.44,4.09.11.65-.18,1.24-.46,1.75-.84.52-.39.94-.9,1.24-1.52.29-.61.44-1.34.44-2.19,0-.37-.03-.79-.1-1.27-.06-.45-.17-.87-.31-1.25,0-1.42.05-2.74.14-3.92.09-1.26.14-2.5.14-3.67,0-1.72-.53-2.97-1.56-3.7-.95-.67-2.27-1.01-3.92-1.01-.73,0-1.4.15-1.99.45-.56.28-1.07.65-1.49,1.09-.41.43-.77.92-1.06,1.44-.14.25-.26.5-.36.75-.67-.26-1.34-.52-2.01-.78-.94-.36-1.95-.67-2.98-.92-1.02-.25-2.14-.45-3.33-.61-1.19-.16-2.52-.24-3.94-.24-2.48,0-5.05.28-7.62.82-2.6.55-4.99,1.45-7.11,2.67-2.15,1.24-3.93,2.88-5.29,4.88-1.38,2.03-2.08,4.52-2.08,7.41,0,2.13.32,4.05.94,5.7.62,1.65,1.47,3.11,2.53,4.37,1.05,1.24,2.3,2.33,3.72,3.24,1.39.89,2.91,1.67,4.5,2.31,1.57.63,3.21,1.19,4.88,1.67,1.64.47,3.3.91,4.92,1.31,1.76.46,3.48.93,5.15,1.41,1.62.47,3.09,1.05,4.36,1.73,1.23.65,2.23,1.43,2.97,2.33.7.84,1.04,1.85,1.04,3.08,0,.87-.25,1.61-.78,2.27-.55.7-1.32,1.31-2.27,1.81-.99.51-2.15.9-3.46,1.16-1.34.26-2.77.4-4.27.4-3.66,0-6.66-.48-8.9-1.43-2.2-.93-3.89-2.26-5.03-3.97-.31-.43-.6-.84-.88-1.2-.32-.42-.69-.8-1.12-1.12-.43-.32-.94-.58-1.51-.76-1.05-.32-2.57-.43-4.07.13-.69.26-1.32.62-1.89,1.09-.57.47-1.06,1.04-1.44,1.7-.4.7-.61,1.47-.61,2.31,0,1.05.33,2.15.97,3.27.61,1.07,1.48,2.13,2.56,3.15,1.07,1.01,2.37,1.98,3.86,2.89,1.48.9,3.14,1.71,4.93,2.4,1.78.68,3.71,1.23,5.73,1.64,2.03.4,4.16.61,6.33.61,1.54,0,3.2-.09,4.93-.26,1.74-.17,3.48-.49,5.18-.94,1.7-.45,3.37-1.09,4.96-1.89,1.61-.81,3.04-1.86,4.26-3.13,1.22-1.27,2.21-2.8,2.95-4.56.74-1.76,1.11-3.87,1.11-6.25,0-3.1-.69-5.72-2.05-7.81"/>
    <path class="cls-1" d="m196.41,138.66c.33.07.67.1,1,.1,2.61,0,5.01-2.05,5.61-4.98.68-3.3-1.19-6.48-4.15-7.09-2.97-.61-5.93,1.58-6.61,4.88-.68,3.3,1.19,6.48,4.15,7.09"/>
  </g>
</svg>